<svg xmlns="http://www.w3.org/2000/svg" viewBox="0 0 200 168" fill="none">
  <!-- Main wave body -->
  <path d="M 30 140 C 10 130 0 110 5 88 C 10 65 30 48 58 38 C 80 30 108 28 130 22 C 155 15 172 8 180 20 C 188 32 178 52 158 65 C 145 73 128 78 115 88 C 100 100 95 118 102 134 C 108 148 120 155 115 162 C 108 168 88 162 70 155 C 54 148 40 145 30 140 Z"
    fill="url(#FV1)"/>
  <!-- Wave curl -->
  <path d="M 130 22 C 155 15 175 10 180 20 C 186 32 175 50 158 65 C 148 73 136 79 125 86 C 118 90 112 95 108 102 C 104 109 104 118 107 126 C 110 134 115 140 113 148 C 111 155 104 160 97 158 C 90 155 86 148 88 138 C 90 126 98 112 112 98 C 124 86 142 76 154 66 C 168 54 176 40 170 30 C 165 22 152 20 138 24 Z"
    fill="url(#FV2)"/>
  <!-- White highlight curl -->
  <path d="M 155 22 C 165 18 175 16 178 24 C 181 32 173 46 162 57 C 154 65 144 72 138 80 C 134 86 132 93 134 100 C 136 107 140 112 138 118 C 136 123 130 124 125 120 C 120 116 118 108 120 100 C 123 90 132 80 143 70 C 155 60 165 48 166 38 C 167 30 162 24 155 22 Z"
    fill="white" opacity="0.32"/>
  <!-- Spray wisp 1 -->
  <path d="M 8 130 C 2 118 4 105 14 100 C 22 96 32 100 38 110"
    stroke="url(#FV3)" stroke-width="9" stroke-linecap="round" fill="none"/>
  <!-- Spray wisp 2 -->
  <path d="M 18 148 C 12 140 14 130 22 126 C 28 123 36 126 40 134"
    stroke="url(#FV3)" stroke-width="6" stroke-linecap="round" fill="none"/>
  <defs>
    <linearGradient id="FV1" x1="0" y1="88" x2="120" y2="168" gradientUnits="userSpaceOnUse">
      <stop offset="0%" stop-color="#0D6EBF"/>
      <stop offset="100%" stop-color="#1565C0"/>
    </linearGradient>
    <linearGradient id="FV2" x1="100" y1="20" x2="90" y2="160" gradientUnits="userSpaceOnUse">
      <stop offset="0%" stop-color="#1E88E5"/>
      <stop offset="60%" stop-color="#1565C0"/>
      <stop offset="100%" stop-color="#0D47A1"/>
    </linearGradient>
    <linearGradient id="FV3" x1="5" y1="100" x2="40" y2="148" gradientUnits="userSpaceOnUse">
      <stop offset="0%" stop-color="#29B6F6"/>
      <stop offset="100%" stop-color="#1E88E5"/>
    </linearGradient>
  </defs>
</svg>
